<svg xmlns="http://www.w3.org/2000/svg" viewBox="0 0 130.13 130.13"><title>Porto Seguro</title><g style="isolation:isolate"><g id="LOGO_CICOM_FINAL" data-name="LOGO CICOM FINAL"><circle cx="65.07" cy="65.07" r="60.07" style="fill:#fff;stroke:#00426e;stroke-miterlimit:10;stroke-width:10px"/><path d="M285.62,126.51l.31-1.37a2.21,2.21,0,0,1,.94.37,1.93,1.93,0,0,1,.61.69,2.7,2.7,0,0,1,.25,1.09,3.23,3.23,0,0,1-.14,1.34,2.12,2.12,0,0,1-.75.94,2.75,2.75,0,0,1-1.46.46,2.45,2.45,0,0,1-1.88-.54,2.54,2.54,0,0,1-.76-1.82,2.59,2.59,0,0,1,.27-1.5,2.15,2.15,0,0,1,1.09-.87l.38,1.34a.94.94,0,0,0-.32.17.88.88,0,0,0-.24.33,1,1,0,0,0-.07.42,1,1,0,0,0,.46.78,1.66,1.66,0,0,0,1,.15,1.74,1.74,0,0,0,1.08-.32.86.86,0,0,0,.26-.72.92.92,0,0,0-.28-.66A1.53,1.53,0,0,0,285.62,126.51Z" transform="translate(-280.43 -55.87)" style="fill:#fff"/><path d="M282.67,124.26l.09-4.13,1,0-.06,2.58.77,0,.05-2.4,1,0-.05,2.4.95,0,.06-2.66,1.1,0-.09,4.2Z" transform="translate(-280.43 -55.87)" style="fill:#fff"/><path d="M282.83,118.92l.16-1.43,2.86-1.58-2.66-.29.16-1.44,4.81.52-.15,1.44-2.85,1.57,2.64.29-.15,1.44Z" transform="translate(-280.43 -55.87)" style="fill:#fff"/><path d="M283.5,113.21l.89-4.6,1.18.23-.3,1.54,3.58.7-.3,1.51-3.58-.7-.3,1.54Z" transform="translate(-280.43 -55.87)" style="fill:#fff"/><path d="M289.3,108.94l-4.67-1.32.7-2.47a4,4,0,0,1,.41-1,1.19,1.19,0,0,1,.59-.47,1.35,1.35,0,0,1,.82,0,1.4,1.4,0,0,1,.62.36,1.36,1.36,0,0,1,.33.6,1.69,1.69,0,0,1,0,.57,1.45,1.45,0,0,1,.29-.33,1.13,1.13,0,0,1,.31-.17,2,2,0,0,1,.35-.13l1.55-.33-.47,1.67-1.65.39a1.2,1.2,0,0,0-.44.17.72.72,0,0,0-.21.33l0,.13,1.9.54Zm-2.36-2.28.18-.62a2.1,2.1,0,0,0,.05-.41.4.4,0,0,0-.08-.28.41.41,0,0,0-.24-.17.41.41,0,0,0-.39,0,.91.91,0,0,0-.28.52l-.18.65Z" transform="translate(-280.43 -55.87)" style="fill:#fff"/><path d="M288.4,103.28a2.49,2.49,0,0,1-1.49-1.29,2.59,2.59,0,0,1,.06-2,2.63,2.63,0,0,1,1.29-1.57,2.42,2.42,0,0,1,1.94,0,2.93,2.93,0,0,1,1.2.77,2.07,2.07,0,0,1,.48,1.1,2.8,2.8,0,0,1-.21,1.4,3.2,3.2,0,0,1-.74,1.21,2.14,2.14,0,0,1-1.09.55A2.6,2.6,0,0,1,288.4,103.28Zm.55-1.43A1.62,1.62,0,0,0,290,102a1,1,0,0,0,.57-.6,1,1,0,0,0,0-.83,1.76,1.76,0,0,0-1-.66,1.48,1.48,0,0,0-1-.09,1,1,0,0,0-.57.61,1,1,0,0,0,0,.82A1.62,1.62,0,0,0,289,101.85Z" transform="translate(-280.43 -55.87)" style="fill:#fff"/><path d="M289.51,94.33l.7-1.38,4.32,2.2-.7,1.37Z" transform="translate(-280.43 -55.87)" style="fill:#fff"/><path d="M290.83,91.71l.74-1.23,3.27-.24-2.3-1.38.74-1.24,4.16,2.48-.75,1.25-3.24.24L295.74,93,295,94.2Z" transform="translate(-280.43 -55.87)" style="fill:#fff"/><path d="M293.82,86.81l2.74-3.8,1,.7L296.61,85l3,2.14-.91,1.25-3-2.14-.92,1.27Z" transform="translate(-280.43 -55.87)" style="fill:#fff"/><path d="M297.19,82.24l2.69-3.14.78.68-1.68,2,.58.5,1.56-1.82.76.64-1.57,1.82.73.63,1.73-2,.83.71-2.73,3.19Z" transform="translate(-280.43 -55.87)" style="fill:#fff"/><path d="M304.67,78.64l-.71-.72,1.71-1.66,1.44,1.48a4.89,4.89,0,0,1-.43,1.28,4.44,4.44,0,0,1-.78,1,3.14,3.14,0,0,1-1.24.8,2,2,0,0,1-1.23,0,2.83,2.83,0,0,1-1.16-.74,2.67,2.67,0,0,1-.72-1.22,2.17,2.17,0,0,1,.08-1.33,3.51,3.51,0,0,1,.82-1.12,4,4,0,0,1,1-.76,1.63,1.63,0,0,1,.8-.15,2.06,2.06,0,0,1,.84.27L304.18,77a.84.84,0,0,0-.51-.08,1.12,1.12,0,0,0-.84,1.1,1.55,1.55,0,0,0,.54,1,1.63,1.63,0,0,0,1,.59,1.09,1.09,0,0,0,.84-.35,1.45,1.45,0,0,0,.3-.4,3,3,0,0,0,.22-.55l-.32-.33Z" transform="translate(-280.43 -55.87)" style="fill:#fff"/><path d="M308.23,77.7l-3.06-3.76,2-1.62a3.88,3.88,0,0,1,.92-.6,1.14,1.14,0,0,1,.75,0,1.26,1.26,0,0,1,.67.46,1.34,1.34,0,0,1,.31.65,1.44,1.44,0,0,1-.08.68,2.31,2.31,0,0,1-.3.49,1.3,1.3,0,0,1,.42-.11,1.35,1.35,0,0,1,.35,0,1.24,1.24,0,0,1,.36.1l1.46.62-1.35,1.09-1.57-.63a1.09,1.09,0,0,0-.45-.11.67.67,0,0,0-.37.15l-.1.08,1.24,1.53Zm-.62-3.22.51-.41a2.43,2.43,0,0,0,.27-.3.42.42,0,0,0,.1-.28.48.48,0,0,0-.1-.28A.45.45,0,0,0,308,73a1,1,0,0,0-.52.26l-.53.43Z" transform="translate(-280.43 -55.87)" style="fill:#fff"/><path d="M314.45,72,313,73l.25.8-1.31.88-1.15-5.07,1.4-.94,4.26,3-1.34.9Zm-.85-.69-1.43-1.13.52,1.74Z" transform="translate(-280.43 -55.87)" style="fill:#fff"/><path d="M314.48,67.21l2-1.1a2.83,2.83,0,0,1,1-.37,1.87,1.87,0,0,1,.85.11,2.42,2.42,0,0,1,.72.49,3.72,3.72,0,0,1,.56.77,3.29,3.29,0,0,1,.42,1.14,1.94,1.94,0,0,1-.1.87,1.67,1.67,0,0,1-.42.67,3.47,3.47,0,0,1-.75.56l-2,1.1Zm1.87.22,1.28,2.32.33-.18a1.59,1.59,0,0,0,.55-.43.7.7,0,0,0,.11-.47,2.27,2.27,0,0,0-.31-.79,1.56,1.56,0,0,0-.73-.8,1.14,1.14,0,0,0-.89.16Z" transform="translate(-280.43 -55.87)" style="fill:#fff"/><path d="M320.33,66.79a2.48,2.48,0,0,1-.1-2,2.58,2.58,0,0,1,1.48-1.35,2.63,2.63,0,0,1,2-.17,2.4,2.4,0,0,1,1.34,1.41,2.92,2.92,0,0,1,.29,1.39,2.09,2.09,0,0,1-.45,1.11,2.85,2.85,0,0,1-1.15.83,3.23,3.23,0,0,1-1.39.31,2,2,0,0,1-1.15-.4A2.69,2.69,0,0,1,320.33,66.79Zm1.42-.61a1.6,1.6,0,0,0,.68.86,1,1,0,0,0,.83,0,1,1,0,0,0,.58-.59,1.74,1.74,0,0,0-.2-1.14,1.47,1.47,0,0,0-.66-.81,1.07,1.07,0,0,0-1.39.61A1.6,1.6,0,0,0,321.75,66.18Z" transform="translate(-280.43 -55.87)" style="fill:#fff"/><path d="M327.58,61.32l2.2-.61a2.68,2.68,0,0,1,1.1-.13,1.81,1.81,0,0,1,.8.31,2,2,0,0,1,.59.64,3.64,3.64,0,0,1,.37.88,3.12,3.12,0,0,1,.15,1.2,2.05,2.05,0,0,1-.29.83,1.79,1.79,0,0,1-.57.56,3.6,3.6,0,0,1-.85.37l-2.2.62Zm1.78.64.71,2.55.36-.1a1.55,1.55,0,0,0,.63-.28.66.66,0,0,0,.21-.44,2.22,2.22,0,0,0-.11-.84,1.69,1.69,0,0,0-.53-1,1.13,1.13,0,0,0-.9,0Z" transform="translate(-280.43 -55.87)" style="fill:#fff"/><path d="M333.13,59.85l4.06-.75.19,1-2.55.46.14.76,2.36-.43.18,1-2.36.43.17.94,2.62-.48.2,1.08-4.14.76Z" transform="translate(-280.43 -55.87)" style="fill:#fff"/><path d="M344.33,61.36l1.37.32a2.41,2.41,0,0,1-.39,1,1.88,1.88,0,0,1-.69.59,2.8,2.8,0,0,1-1.1.24,3.13,3.13,0,0,1-1.33-.16,2,2,0,0,1-.94-.76,2.74,2.74,0,0,1-.44-1.46,2.47,2.47,0,0,1,.56-1.88,2.61,2.61,0,0,1,1.83-.74,2.58,2.58,0,0,1,1.5.3,2.17,2.17,0,0,1,.85,1.09l-1.34.37a.94.94,0,0,0-.17-.32,1,1,0,0,0-.32-.25,1,1,0,0,0-.43-.07.92.92,0,0,0-.78.45,1.71,1.71,0,0,0-.16,1,1.76,1.76,0,0,0,.31,1.09.89.89,0,0,0,.72.27.88.88,0,0,0,.65-.28A1.46,1.46,0,0,0,344.33,61.36Z" transform="translate(-280.43 -55.87)" style="fill:#fff"/><path d="M346.32,60.84a2.47,2.47,0,0,1,.76-1.81,2.61,2.61,0,0,1,1.93-.57,2.69,2.69,0,0,1,1.89.74,2.38,2.38,0,0,1,.58,1.85,2.85,2.85,0,0,1-.35,1.37,2.11,2.11,0,0,1-.89.81,3,3,0,0,1-1.4.24,3.3,3.3,0,0,1-1.38-.33,2,2,0,0,1-.86-.87A2.55,2.55,0,0,1,346.32,60.84Zm1.54.08a1.6,1.6,0,0,0,.23,1.07,1,1,0,0,0,.75.36,1,1,0,0,0,.78-.28A1.78,1.78,0,0,0,350,61a1.49,1.49,0,0,0-.24-1,1,1,0,0,0-.76-.35,1,1,0,0,0-.76.29A1.55,1.55,0,0,0,347.86,60.92Z" transform="translate(-280.43 -55.87)" style="fill:#fff"/><path d="M352.78,58.78l2,.3.33,3,1.21-2.8,2,.3-.72,4.79-1.25-.19.55-3.65-1.51,3.51-1.13-.17-.41-3.8-.55,3.65-1.25-.19Z" transform="translate(-280.43 -55.87)" style="fill:#fff"/><path d="M362.82,60.76l1.48.4L363.56,64a2.31,2.31,0,0,1-.34.75,1.67,1.67,0,0,1-.59.53,1.75,1.75,0,0,1-.7.23,3.08,3.08,0,0,1-1.08-.12c-.23-.06-.49-.15-.76-.25a2.17,2.17,0,0,1-.64-.38,1.75,1.75,0,0,1-.41-.54,1.65,1.65,0,0,1-.17-.62,3,3,0,0,1,.07-.83l.74-2.79,1.49.4-.76,2.85a.82.82,0,0,0,.06.66.83.83,0,0,0,.55.37.82.82,0,0,0,.66,0,.83.83,0,0,0,.38-.54Z" transform="translate(-280.43 -55.87)" style="fill:#fff"/><path d="M365.64,61.59l1.35.5.81,3.17.95-2.51,1.36.52L368.4,67.8,367,67.29l-.81-3.15-.94,2.49-1.35-.51Z" transform="translate(-280.43 -55.87)" style="fill:#fff"/><path d="M371.34,63.85l1.41.65-2,4.39-1.4-.65Z" transform="translate(-280.43 -55.87)" style="fill:#fff"/><path d="M375.51,69.18l1,1a2.36,2.36,0,0,1-.82.6,1.88,1.88,0,0,1-.91.14,2.71,2.71,0,0,1-1-.37,3.12,3.12,0,0,1-1.05-.84,2,2,0,0,1-.39-1.14,2.7,2.7,0,0,1,.38-1.48,2.46,2.46,0,0,1,1.47-1.29,3,3,0,0,1,3.06,1.37,2.17,2.17,0,0,1,.16,1.38l-1.34-.4a1.19,1.19,0,0,0,0-.35.93.93,0,0,0-.15-.39,1,1,0,0,0-.32-.28.91.91,0,0,0-.9,0,1.7,1.7,0,0,0-.65.73,1.78,1.78,0,0,0-.31,1.09.85.85,0,0,0,.47.6.88.88,0,0,0,.7.12A1.49,1.49,0,0,0,375.51,69.18Z" transform="translate(-280.43 -55.87)" style="fill:#fff"/><path d="M379.25,73l-1.45-1-.65.52-1.3-.88,4.27-2.95,1.39.95-1.18,5.05-1.33-.9Zm.32-1,.53-1.75-1.43,1.13Z" transform="translate(-280.43 -55.87)" style="fill:#fff"/><path d="M381.38,76.27l.33-.24a3.2,3.2,0,0,1,.51.33,1.17,1.17,0,0,1,.49.66.54.54,0,0,1-.12.49.57.57,0,0,1-.28.18.64.64,0,0,1-.45,0,1.84,1.84,0,0,1-.6-.35,8,8,0,0,1-.64-.65l.26-.31a4.42,4.42,0,0,0,.53.53.78.78,0,0,0,.36.19A.22.22,0,0,0,382,77a.19.19,0,0,0,0-.18.37.37,0,0,0-.16-.22A3.44,3.44,0,0,0,381.38,76.27Zm3.07-.75.79,1.17a2.58,2.58,0,0,1-.92.44,1.91,1.91,0,0,1-.92,0,2.78,2.78,0,0,1-1-.55,3.34,3.34,0,0,1-.88-1,2.18,2.18,0,0,1-.17-1.19,2.74,2.74,0,0,1,.66-1.38,2.48,2.48,0,0,1,1.68-1,3.05,3.05,0,0,1,2.75,1.92,2.15,2.15,0,0,1-.1,1.38l-1.24-.64a.9.9,0,0,0,.09-.34,1,1,0,0,0-.07-.41.94.94,0,0,0-.27-.33.9.9,0,0,0-.88-.2,1.81,1.81,0,0,0-.77.6,1.79,1.79,0,0,0-.51,1,.88.88,0,0,0,.36.68.86.86,0,0,0,.67.24A1.43,1.43,0,0,0,384.45,75.52Z" transform="translate(-280.43 -55.87)" style="fill:#fff"/><path d="M386.27,76.49a2.46,2.46,0,0,1,1.78-.82,2.6,2.6,0,0,1,1.81.87,2.66,2.66,0,0,1,.9,1.82,2.42,2.42,0,0,1-.81,1.76,3,3,0,0,1-1.2.78,2,2,0,0,1-1.2,0,2.88,2.88,0,0,1-1.19-.76,3.18,3.18,0,0,1-.8-1.17,2,2,0,0,1-.05-1.22A2.58,2.58,0,0,1,386.27,76.49Zm1.08,1.1a1.57,1.57,0,0,0-.55.94,1.08,1.08,0,0,0,1.08,1.09,1.74,1.74,0,0,0,1-.6,1.52,1.52,0,0,0,.51-.91,1,1,0,0,0-.33-.77.93.93,0,0,0-.75-.3A1.61,1.61,0,0,0,387.35,77.59Zm3.79-1.34.38.38a.94.94,0,0,1-.1.1.78.78,0,0,1-.54.27.62.62,0,0,1-.48-.21,1.83,1.83,0,0,1-.35-.58,1.35,1.35,0,0,0-.18-.34.21.21,0,0,0-.15-.07.29.29,0,0,0-.19.11l-.38-.38a.94.94,0,0,0,.1-.1.76.76,0,0,1,.54-.25.65.65,0,0,1,.48.19.86.86,0,0,1,.14.18,2.9,2.9,0,0,1,.17.37,1.33,1.33,0,0,0,.21.38.24.24,0,0,0,.15.06A.31.31,0,0,0,391.14,76.25Z" transform="translate(-280.43 -55.87)" style="fill:#fff"/><path d="M392.4,79.31,395,82.49l-.79.66-1.66-2-.59.5,1.54,1.84-.76.63-1.54-1.84-.73.61,1.7,2-.84.71-2.69-3.24Z" transform="translate(-280.43 -55.87)" style="fill:#fff"/><path d="M393,85.1l.91,1.15a1.13,1.13,0,0,0-.32.46.82.82,0,0,0,.15.73.76.76,0,0,0,.42.33.44.44,0,0,0,.38,0,.41.41,0,0,0,.18-.34,2,2,0,0,0-.22-.8,3.46,3.46,0,0,1-.35-1.52,1.21,1.21,0,0,1,.52-.9,1.3,1.3,0,0,1,.71-.22,1.55,1.55,0,0,1,.81.25,3.25,3.25,0,0,1,.86.9,2.55,2.55,0,0,1,.55,1.39A1.49,1.49,0,0,1,397,87.6l-.9-1.14a.75.75,0,0,0,.25-.48.83.83,0,0,0-.17-.5.6.6,0,0,0-.32-.27.34.34,0,0,0-.3,0,.27.27,0,0,0-.11.21,1.29,1.29,0,0,0,.15.53,6.7,6.7,0,0,1,.48,1.43,1.59,1.59,0,0,1-.07.83,1.32,1.32,0,0,1-.48.57,1.51,1.51,0,0,1-.85.28,1.59,1.59,0,0,1-.92-.27,3,3,0,0,1-.85-.86,2.48,2.48,0,0,1-.62-1.72A1.83,1.83,0,0,1,393,85.1Z" transform="translate(-280.43 -55.87)" style="fill:#fff"/><path d="M395.79,92.26,400.08,90l1.2,2.27a3.61,3.61,0,0,1,.4,1,1.21,1.21,0,0,1-.1.75,1.47,1.47,0,0,1-1.29.74,1.51,1.51,0,0,1-.64-.21,1.83,1.83,0,0,1-.42-.39,1.38,1.38,0,0,1,0,.44,1,1,0,0,1-.11.33,1.57,1.57,0,0,1-.16.34l-.89,1.31-.82-1.54.93-1.42a1.26,1.26,0,0,0,.2-.42.78.78,0,0,0-.08-.39l-.07-.12-1.73.92Zm3.28,0,.3.57a2.77,2.77,0,0,0,.25.33.41.41,0,0,0,.25.15.42.42,0,0,0,.29,0,.44.44,0,0,0,.25-.3,1,1,0,0,0-.16-.57l-.31-.59Z" transform="translate(-280.43 -55.87)" style="fill:#fff"/><path d="M402.69,95.07l1.61,3.8-.95.41-1-2.38-.71.3.93,2.21-.9.38-.94-2.21-.88.38,1,2.45-1,.42L398.23,97Z" transform="translate(-280.43 -55.87)" style="fill:#fff"/><path d="M402.57,103.35l1-.31.73,2.27-2,.63a5,5,0,0,1-1-1,3.78,3.78,0,0,1-.54-1.14,3,3,0,0,1-.17-1.46,2,2,0,0,1,.57-1.1,2.74,2.74,0,0,1,1.17-.7,2.81,2.81,0,0,1,1.42-.11,2.23,2.23,0,0,1,1.15.67,3.22,3.22,0,0,1,.64,1.22,3.93,3.93,0,0,1,.24,1.23,1.57,1.57,0,0,1-.21.78,2.06,2.06,0,0,1-.62.63l-.7-1.34a.69.69,0,0,0,.3-.42,1,1,0,0,0,0-.58A1,1,0,0,0,404,102a1.61,1.61,0,0,0-1.12,0,1.65,1.65,0,0,0-1,.64,1.09,1.09,0,0,0-.06.91,1.88,1.88,0,0,0,.22.45,2.55,2.55,0,0,0,.4.43l.43-.14Z" transform="translate(-280.43 -55.87)" style="fill:#fff"/><path d="M406.52,105.86l.37,1.5-4.7,1.17-.37-1.5Z" transform="translate(-280.43 -55.87)" style="fill:#fff"/><path d="M404.81,108.9a2.5,2.5,0,0,1,1.94.35,3.14,3.14,0,0,1,.67,3.76,2.43,2.43,0,0,1-1.68,1,3,3,0,0,1-1.42,0,2.05,2.05,0,0,1-1-.69,3,3,0,0,1-.54-1.31,3.18,3.18,0,0,1,0-1.42,2,2,0,0,1,.65-1A2.72,2.72,0,0,1,404.81,108.9Zm.26,1.52a1.64,1.64,0,0,0-1,.46.94.94,0,0,0-.18.81.92.92,0,0,0,.44.7,1.73,1.73,0,0,0,1.16.08,1.44,1.44,0,0,0,.93-.46,1,1,0,0,0,.18-.81.94.94,0,0,0-.45-.68A1.6,1.6,0,0,0,405.07,110.42Z" transform="translate(-280.43 -55.87)" style="fill:#fff"/><path d="M408.24,114.77l.11,1.43-2.52,2.09,2.67-.22.12,1.45-4.83.39-.12-1.45,2.5-2.07-2.65.21-.11-1.44Z" transform="translate(-280.43 -55.87)" style="fill:#fff"/><path d="M404.59,123.83v-1.75l-.8-.25,0-1.57,4.83,1.92,0,1.68-4.86,1.83v-1.61Zm1.05-.31,1.74-.53-1.73-.56Z" transform="translate(-280.43 -55.87)" style="fill:#fff"/><path d="M408.54,126.5,408.4,128l-3.63-.32-.22,2.39-1.19-.1.35-3.93Z" transform="translate(-280.43 -55.87)" style="fill:#fff"/><path d="M298.52,160.23l1.08,1.07a1.09,1.09,0,0,0-.28.51.87.87,0,0,0,.24.73.78.78,0,0,0,.47.29.48.48,0,0,0,.39-.1.49.49,0,0,0,.14-.36,2.1,2.1,0,0,0-.32-.81,3.53,3.53,0,0,1-.54-1.52,1.22,1.22,0,0,1,.42-1,1.35,1.35,0,0,1,.7-.31,1.47,1.47,0,0,1,.87.16,3.23,3.23,0,0,1,1,.82,2.65,2.65,0,0,1,.73,1.36,1.56,1.56,0,0,1-.44,1.22l-1.06-1.07a.78.78,0,0,0,.2-.52.83.83,0,0,0-.24-.49.64.64,0,0,0-.36-.24.35.35,0,0,0-.3.08.29.29,0,0,0-.09.23,1.64,1.64,0,0,0,.22.52,6.67,6.67,0,0,1,.66,1.41,1.63,1.63,0,0,1,0,.87,1.49,1.49,0,0,1-.42.64,1.59,1.59,0,0,1-.85.39,1.68,1.68,0,0,1-1-.17,3.06,3.06,0,0,1-1-.79,2.59,2.59,0,0,1-.84-1.68A1.86,1.86,0,0,1,298.52,160.23Z" transform="translate(-280.43 -55.87)" style="fill:#fff"/><path d="M305.34,162.71l3.63,3.21-.82.93-1.22-1.08-2.5,2.83-1.19-1.06,2.5-2.83-1.22-1.07Z" transform="translate(-280.43 -55.87)" style="fill:#fff"/><path d="M310.56,167.14l3.51,2.43-.61.88-2.2-1.52-.45.66,2,1.41-.58.84-2-1.41-.56.81,2.26,1.56-.65.94-3.57-2.48Z" transform="translate(-280.43 -55.87)" style="fill:#fff"/><path d="M316,170.72l1.41.75-1.78,3.33L317.8,176l-.59,1.09-3.59-1.92Z" transform="translate(-280.43 -55.87)" style="fill:#fff"/><path d="M321.42,173.49l4,1.59-.4,1-2.48-1-.3.74,2.31.92-.38.95-2.3-.92-.37.92,2.56,1-.42,1.06-4-1.61Z" transform="translate(-280.43 -55.87)" style="fill:#fff"/><path d="M330,179.52l1.24.76a2.49,2.49,0,0,1-.68.81,2,2,0,0,1-.87.36,2.83,2.83,0,0,1-1.15-.11,3.41,3.41,0,0,1-1.27-.58,2.2,2.2,0,0,1-.67-1,2.71,2.71,0,0,1,0-1.57,2.57,2.57,0,0,1,1.15-1.68,2.64,2.64,0,0,1,2-.14,2.76,2.76,0,0,1,1.38.76,2.32,2.32,0,0,1,.49,1.35l-1.44-.07a.84.84,0,0,0-.06-.36,1,1,0,0,0-.24-.35,1,1,0,0,0-.4-.2.94.94,0,0,0-.91.19,1.8,1.8,0,0,0-.46.9,1.83,1.83,0,0,0,0,1.17.94.94,0,0,0,.63.49.89.89,0,0,0,.73-.07A1.53,1.53,0,0,0,330,179.52Z" transform="translate(-280.43 -55.87)" style="fill:#fff"/><path d="M333.63,179.88a2.54,2.54,0,0,1,.95-1.79,3.2,3.2,0,0,1,3.91.53,2.49,2.49,0,0,1,.43,2,2.89,2.89,0,0,1-.5,1.38,2.12,2.12,0,0,1-1,.75,3,3,0,0,1-1.46.11,3.4,3.4,0,0,1-1.39-.46,2.1,2.1,0,0,1-.8-1A2.7,2.7,0,0,1,333.63,179.88Zm1.57.23a1.65,1.65,0,0,0,.14,1.12,1,1,0,0,0,.74.44,1,1,0,0,0,.83-.22,1.8,1.8,0,0,0,.44-1.11,1.59,1.59,0,0,0-.15-1.07,1,1,0,0,0-.74-.43,1,1,0,0,0-.82.22A1.66,1.66,0,0,0,335.2,180.11Z" transform="translate(-280.43 -55.87)" style="fill:#fff"/><path d="M341.35,178.29h2.1l.79,3,.82-3h2.09l0,5h-1.3V179.5l-1,3.82h-1.18l-1-3.82v3.82h-1.31Z" transform="translate(-280.43 -55.87)" style="fill:#fff"/><path d="M353.3,180.31l2.06-.34.17,1.06-2,.34Z" transform="translate(-280.43 -55.87)" style="fill:#fff"/><path d="M361.37,179.32l1.41-.56a1.19,1.19,0,0,0,.36.46.89.89,0,0,0,.77.07.81.81,0,0,0,.45-.31.49.49,0,0,0,.06-.4.44.44,0,0,0-.27-.28,2.07,2.07,0,0,0-.87,0,3.68,3.68,0,0,1-1.61-.11,1.23,1.23,0,0,1-.73-.78,1.34,1.34,0,0,1,0-.77,1.6,1.6,0,0,1,.49-.73,3.4,3.4,0,0,1,1.15-.58,2.67,2.67,0,0,1,1.54-.13,1.54,1.54,0,0,1,.94.89l-1.4.55a.69.69,0,0,0-.94-.37.7.7,0,0,0-.37.24.34.34,0,0,0,0,.31.25.25,0,0,0,.17.16,1.24,1.24,0,0,0,.57,0,7.14,7.14,0,0,1,1.56,0,1.57,1.57,0,0,1,.8.32,1.43,1.43,0,0,1,.43.64,1.55,1.55,0,0,1,0,.93,1.72,1.72,0,0,1-.54.83,3,3,0,0,1-1.11.58,2.54,2.54,0,0,1-1.88.1A1.87,1.87,0,0,1,361.37,179.32Z" transform="translate(-280.43 -55.87)" style="fill:#fff"/><path d="M367.87,177.07l1.34-.71a1.14,1.14,0,0,0,.41.41,1,1,0,0,0,1.18-.37.46.46,0,0,0,0-.41.44.44,0,0,0-.3-.24,2.25,2.25,0,0,0-.87.07,3.63,3.63,0,0,1-1.61.07,1.21,1.21,0,0,1-.81-.7,1.22,1.22,0,0,1-.09-.76,1.49,1.49,0,0,1,.41-.78,3.29,3.29,0,0,1,1.07-.7,2.71,2.71,0,0,1,1.52-.3,1.56,1.56,0,0,1,1,.78l-1.33.7a.79.79,0,0,0-.43-.34.8.8,0,0,0-.55.08.62.62,0,0,0-.33.27.36.36,0,0,0,0,.32.28.28,0,0,0,.2.14,1.36,1.36,0,0,0,.56,0,7.35,7.35,0,0,1,1.55-.22,1.62,1.62,0,0,1,.83.24,1.36,1.36,0,0,1,.49.59,1.61,1.61,0,0,1,.12.92,1.69,1.69,0,0,1-.45.88,3.32,3.32,0,0,1-1,.71,2.61,2.61,0,0,1-1.86.3A1.9,1.9,0,0,1,367.87,177.07Z" transform="translate(-280.43 -55.87)" style="fill:#fff"/><path d="M372.59,171.1l2.27-1.35a1.9,1.9,0,0,1,1.32-.32,1.51,1.51,0,0,1,.95.76,1.54,1.54,0,0,1,.21,1.26,2.11,2.11,0,0,1-1,1.1l-.75.45.95,1.59-1.37.82Zm2.46,1,.34-.2a1.06,1.06,0,0,0,.48-.46.49.49,0,0,0-.05-.44.56.56,0,0,0-.34-.26.87.87,0,0,0-.61.17l-.39.23Z" transform="translate(-280.43 -55.87)" style="fill:#fff"/><path d="M378.71,167.09l.59-.42,2,5-.58.43Z" transform="translate(-280.43 -55.87)" style="fill:#fff"/><path d="M380.84,165.63l2.26-1.94a1.65,1.65,0,0,1,1.11-.48,1.18,1.18,0,0,1,.88.41,1.11,1.11,0,0,1,.28.77,1.22,1.22,0,0,1-.2.61,1.45,1.45,0,0,1,.91-.19,1.19,1.19,0,0,1,.72.43,1.31,1.31,0,0,1,.31.65,1.44,1.44,0,0,1-.06.71,2,2,0,0,1-.36.52,6.65,6.65,0,0,1-.49.51l-2.09,1.8Zm2.5.44.53-.45a.81.81,0,0,0,.31-.43.5.5,0,0,0-.46-.54.92.92,0,0,0-.46.24l-.54.46Zm1.29,1.49.62-.53a.93.93,0,0,0,.34-.48.43.43,0,0,0-.12-.4.42.42,0,0,0-.36-.16.88.88,0,0,0-.53.28l-.61.52Z" transform="translate(-280.43 -55.87)" style="fill:#fff"/><path d="M391.11,161.61l-1.22,1.33.44.75-1.1,1.2-2.39-4.82,1.18-1.28,5,2L391.89,162Zm-1-.49-1.72-.79.95,1.63Z" transform="translate(-280.43 -55.87)" style="fill:#fff"/><g id="Mapa"><g style="mix-blend-mode:multiply"><path d="M376.89,149.16a8.16,8.16,0,0,0,0,4.94,8.81,8.81,0,0,1,.49,1.77,2,2,0,0,1-.42,1.06,3,3,0,0,1-1.49,1.36,2,2,0,0,0-1,1.34c-.25.81-.6,1.59-.94,2.46l-5.61-2.84.82-.89c-.52-.56-1-1.13-1.54-1.64a5.29,5.29,0,0,0-1-.52,3.41,3.41,0,0,1-.44-.3,14.07,14.07,0,0,0-1.32-1.08c0-.13.41-.35.11-.57a5.77,5.77,0,0,0,.17-1.08c0-.42-.26-.85-.2-1.25a5.68,5.68,0,0,1,.63-1.74c.08-.14.62-.06.94,0,.72.08.94-.15.83-.95l-.61.07c0-.43,0-.84.06-1.24.1-.77.14-.79,1.22-.89-.1-.56-.1-1.05.62-1.2.13,0,.2-.32.3-.49a4.42,4.42,0,0,1,.44-.76c.19-.23.43-.34.39-.77s.31-.72.5-1.12c-.5-.27-.64-1-1.42-.9-.53.06-.66-1-1.3-.62a3,3,0,0,1-.79-.61c-.29-.43-.57-.1-.85-.07s-.77.18-1.06-.25c-.05-.07-.33-.06-.46,0a3.31,3.31,0,0,0-.5.36c-.66-.22-1.08-1.24-2.11-.67l-.43-.4c-.34.54-.49.56-1.15.14-.78,1.07-1.92,1.21-3.22,1.16a7.28,7.28,0,0,1-.44-1.57,1.35,1.35,0,0,0-.69-1c-1.11-.8-2.25-1.54-3.36-2.34-.46-.33-.74,0-1,.24a.88.88,0,0,1-.84.3,3.56,3.56,0,0,0-1,.22,2.17,2.17,0,0,1-.41-.4.4.4,0,0,0-.59-.21c-.54.23-1.09-.06-1.64-.07-.18,0-.36-.23-.56-.34-.45-.24-.89-.64-1.36-.66a5.69,5.69,0,0,1-2.1-.88c-.41-.19-.77-.47-1.16-.7a1.06,1.06,0,0,0-.37-.18,7,7,0,0,0-1.82-.11,3.19,3.19,0,0,0-2.37,1.34.64.64,0,0,1-.54.2c-.83-.24-1.65-.52-2.47-.79-.21-.07-.56-.09-.61-.22a2.21,2.21,0,0,1-.13-1.05,18.25,18.25,0,0,1,.46-1.79c-.21,0-.45-.07-.68-.09-1-.09-2-.24-3.06-.25a3.18,3.18,0,0,0-1.5.41c-1,.6-2.21,1-2.91,2-.11.17-.38.24-.64.39.06.61-.34.93-.89,1.23s-1.11.44-1.14,1.24c-.84-.22-1.32.24-1.79.82a12.09,12.09,0,0,1-1.35,1.22.42.42,0,0,1-.33.1c-.67-.2-.89.35-1.13.74a1.75,1.75,0,0,1-1.41,1,5,5,0,0,0-1.14.41l-.07-.15-.92,1.22-.51-.36a2.9,2.9,0,0,0,1-2.16.85.85,0,0,0-.25-.59c-.27-.27-.55-.48-.26-.91.07-.1,0-.27,0-.41,0-.4-.19-.76-.06-1.21s-.19-.84-.27-1.28a.54.54,0,0,1,.11-.41,9.3,9.3,0,0,1,.87-.75l-3.36-2c0-.4.36-.93-.19-1.35-.09-.07,0-.35,0-.53a1.12,1.12,0,0,0-.16-.43,2.11,2.11,0,0,1,.72-2.21l-.12-.12-.64-.06v-1.39c.47-.26,1.21-.42,1.4-1.14l-.16-.2-1.91,1c-.13-.37-.28-.74-.38-1.12a2.2,2.2,0,0,1-.15-1c.11-.4.21-.87.73-1.06.35-.13.85-.17.8-.76l-1.42.31c0-.88,0-1.7-.08-2.51-.1-1-.09-1.12.76-1.22,0-.46-.07-.49-.37-.35-.13.06-.27.1-.4.15l-.13-.52-.07.08a5.84,5.84,0,0,1-1-1.28,6.37,6.37,0,0,1-.45-2.11.85.85,0,0,1,.75-1,2,2,0,0,0,.65-.11c.12,0,.2-.22.32-.36l-1.73,0,.36-2.27,1.79,0a1.82,1.82,0,0,0,0-.27,15.14,15.14,0,0,1-2.43-.48c-.53-.19-1.39.17-1.57-.8-.05-.22-.38-.39-.59-.57a.66.66,0,0,1,.15-1.1,1.16,1.16,0,0,0,.86-1.16,2.32,2.32,0,0,1,.74-1.53c.22-.22.52-.39.36-.84-.05-.14.27-.42.34-.52.13-.35.22-.58.31-.81s.14-.27.11-.35c-.24-.52.09-.58.47-.7a2.39,2.39,0,0,0,.64-.48l.31-.28c.47-.39,1-.76,1.4-1.18.11-.09.05-.35.07-.55,1-.37,1.15-.8.84-1.78.2-.16.41-.31.6-.47s.61-.22.67.22.49.86.83,1.23a6.27,6.27,0,0,1,.55.77c.09.13.2.24.31.37a1.28,1.28,0,0,0,.38,1.91,2.12,2.12,0,0,1,.23.35c.07.12.14.33.23.34.76.1,1.31.86,2.19.65a2.87,2.87,0,0,1,1.17.25c.17,0,.38.26.47.2a2.78,2.78,0,0,0,.79-.66c.32-.38.38-1,1.09-1a3.6,3.6,0,0,0,.23-.73c.27-.13.54-.57,1.22-.52.47,0,1-.58,1.53-.94.19.65.86.5,1.39.65a.31.31,0,0,0,.26-.08c.39-.46.89-.87.74-1.6-.09-.44.11-.62.52-.52s.45,0,.57-.34c.25-.64.58-1.24.86-1.86.07-.17,0-.39.09-.57a.93.93,0,0,1,.3-.51c.38-.22.58-.39.22-.83-.12-.15-.05-.52,0-.75.15-.39.17-.66-.34-.72a1,1,0,0,1-.87-.78A1.24,1.24,0,0,0,329,90c-.65-1-.41-1.72.64-2.3a10.38,10.38,0,0,0,1-.89,6.52,6.52,0,0,1,1.06-.67c.08,0,.28.06.39.15.37.29.69.72,1.11.86s.76-.13,1.15-.22c0,0,0-.05,0-.05s.43-.16.45-.12c.33.55,1.2-.34,1.41.56,0,.23.32.43.53.6s.78.08.87.59c0,0,.38,0,.47-.07a3.71,3.71,0,0,0,.42-.7c.37.06.69.12.95-.34a1.32,1.32,0,0,1,.94-.49c.62,0,.75-.6.92-.93a1.71,1.71,0,0,1,1-.84,13.72,13.72,0,0,1,1.8-.51c.23,0,.52.1.73,0a3.64,3.64,0,0,0,1-.64,3.42,3.42,0,0,0,.51-.8.68.68,0,0,0,.13-.27c.09-.87.73-1.12,1.43-1.33a.38.38,0,0,0,.16-.17c.36-.65.71-1.3,1.08-1.94.06-.12.23-.3.27-.28.72.38,1.31-.37,2.05-.18,0,.48.38.59.87.47l.13.52c.71-.24,1-.15,1.4.49s.53,1,.82,1.59a1,1,0,0,1,.34,0c.3.11.81.23.83.4a3.48,3.48,0,0,1-.25,1.2c0,.15-.09.3-.12.45s0,.49-.09.78a9,9,0,0,1,.92.2c.45.14.78.07,1-.4,0-.1.2-.24.25-.22.54.21.49-.3.67-.56l.74.2c-.19-.83.65-1.38.28-2.26-.21-.5.41-.86.93-.59a.79.79,0,0,0,.26.13,3.53,3.53,0,0,0,2.22-1.69,1,1,0,0,0-.16-.5c-.2-.36,0-.55.3-.64.45-.13.92-.2,1.34-.28a1,1,0,0,0,.1-.16c.16-.37-.59-.75,0-1.1.34-.19.72-.31,1.07-.49a2.37,2.37,0,0,0,.61-.37,1.1,1.1,0,0,1,1.82.12c.08.1.06.28.14.38s.27.35.43.38c.49.06,1.12-.12,1.47.12a2.51,2.51,0,0,0,1.81.24,1.29,1.29,0,0,1,1.32.93c.06.24.38.4.53.56a12.34,12.34,0,0,1,.75-1.42c0-.06.46.14.77.24-.27.5-.63.92.08,1.26.35.17.57.19.84-.1a.47.47,0,0,1,.43-.12c.13.06.29.28.26.4a3.27,3.27,0,0,0,.87,2.41c.13.19.21.41.35.59a.8.8,0,0,0,.41.27c.43.07.86.1,1.33.15a7.89,7.89,0,0,0,0,.92,5.23,5.23,0,0,0,.15.66l.24.09-.57.49a5.77,5.77,0,0,1,.64.74,1,1,0,0,1,.18.64c-.08.52,0,.8.62.81.81,0,1,.28,1.33,1.29a4.43,4.43,0,0,0,.48,1.19c.24.36.11.46-.16.65-.66.46-.62.57-.35,1.3a8.5,8.5,0,0,1,.32,1.67c0,.08-.15.21-.25.28a5.22,5.22,0,0,1-.88.52c-.17.08-.5.12-.59,0a.91.91,0,0,0-1.17-.2,1,1,0,0,1-.41,0c-.1.31-.2.59-.29.88a1.81,1.81,0,0,0,.9,1.62c.38.2.67.36.77.87.06.3.52.53.9.9a1.48,1.48,0,0,1,0,.47c-.13.5.18.73.52,1a13.2,13.2,0,0,0,1.25.86,9.47,9.47,0,0,0,1.29.53c.13-.15.23-.36.31-.35a2.59,2.59,0,0,0,2.46-1.2c.07.1.11.14.1.16-1.22,1.94-1.6,4.22-2.54,6.26-.48,1-1.18,2-1.62,3a15.42,15.42,0,0,1-1.62,2.49.8.8,0,0,0-.08.16c-.34,1.18-1.33,1.66-2.46,2.23l.4-1.87a1.94,1.94,0,0,1-2.07-1.37l-.26.14c-.08.35-.15.7-.22,1s-.07.39-.1.58a2.63,2.63,0,0,1-.76-.14c-.17-.09-.25-.33-.39-.53-.11.09-.2.13-.21.19a3.25,3.25,0,0,0,.74,1.26c.22.17.52.41.53.62a1.71,1.71,0,0,1-.4.84c-.08.13-.29.17-.49.28a2.7,2.7,0,0,1,.3.34c.21.31.31.6-.11.85a2.48,2.48,0,0,0-.83.66,1.81,1.81,0,0,0-.2,1c0,.2-.12.54.34.57.15,0,.28.35.43.56a1,1,0,0,0,.05,1.45c.08.09.08.25.12.38l-.52.06a1.53,1.53,0,0,0,.29,2,.69.69,0,0,1,.15.49c0,.64-.15,1.28-.19,1.92s0,1,0,1.55a12.51,12.51,0,0,1-.2,1.93,5.57,5.57,0,0,0,.53,3.06,13.67,13.67,0,0,1,.33,1.57c.25,1.05.51,2.1.75,3.15.14.59.22,1.19.38,1.76s.35.8.5,1.2a1.89,1.89,0,0,1,.22.94c-.3,1.08-.18,2.26-.78,3.27,0,.05-.07.13-.05.17.44.62-.17,1.14-.18,1.72,0,.77-.18,1.53-.22,2.3,0,.56,0,1.13,0,1.74" transform="translate(-280.43 -55.87)" style="fill:#036"/><path d="M328,111c.08.41,0,.48-.19.51l-2.49.15c-.21,0-.23-.07-.27-.27-.15-.83-.52-1.47-1.46-1.47s-1.76.83-1.76,3.16.59,3.19,1.74,3.19a2.19,2.19,0,0,0,2.18-1.67c0-.12.17-.16.4-.12l1.78.36c.1,0,.25.1.2.47a4.62,4.62,0,0,1-4.66,3.31c-3.06,0-5-2.36-5-5.6s2-5.31,5.05-5.31A4.28,4.28,0,0,1,328,111Z" transform="translate(-280.43 -55.87)" style="fill:#036"/><path d="M332.24,107.84c.17,0,.26.11.26.3V118c0,.3-.15.42-.47.42h-2.38c-.3,0-.39-.12-.39-.36v-9.94c0-.21.12-.32.28-.32Z" transform="translate(-280.43 -55.87)" style="fill:#036"/><path d="M343.22,111c.08.41,0,.48-.19.51l-2.49.15c-.21,0-.23-.07-.27-.27-.16-.83-.53-1.47-1.47-1.47s-1.75.83-1.75,3.16.59,3.19,1.74,3.19a2.19,2.19,0,0,0,2.18-1.67c0-.12.17-.16.4-.12l1.78.36c.1,0,.25.1.2.47a4.63,4.63,0,0,1-4.66,3.31c-3.06,0-5-2.36-5-5.6s2-5.31,5.05-5.31A4.28,4.28,0,0,1,343.22,111Z" transform="translate(-280.43 -55.87)" style="fill:#036"/><path d="M344.17,113.17c0-3.32,2-5.48,5.13-5.48s5.1,2.16,5.1,5.48-2,5.43-5.1,5.43S344.17,116.48,344.17,113.17Zm6.84,0c0-2.36-.5-3.32-1.71-3.32s-1.74,1-1.74,3.32.47,3.15,1.74,3.15S351,115.51,351,113.22Z" transform="translate(-280.43 -55.87)" style="fill:#036"/><path d="M355.58,118.05v-9.89c0-.22.09-.32.3-.32h4c.24,0,.32,0,.39.25l1.49,4.55c.05.16.14.13.18,0l1.32-4.39c.08-.26.19-.41.39-.41h4.11c.17,0,.26.11.26.3V118c0,.3-.13.42-.46.42h-2.4c-.29,0-.37-.12-.37-.36v-6.43c0-.16-.12-.16-.17,0l-2.05,6.51a.37.37,0,0,1-.35.26h-1.49a.34.34,0,0,1-.34-.26l-2.05-6.4c-.07-.23-.17-.17-.17,0v6.33c0,.26-.06.32-.32.32H356A.36.36,0,0,1,355.58,118.05Z" transform="translate(-280.43 -55.87)" style="fill:#036"/></g><path d="M375.89,149.16a8.16,8.16,0,0,0,0,4.94,8.81,8.81,0,0,1,.49,1.77,2,2,0,0,1-.42,1.06,3,3,0,0,1-1.49,1.36,2,2,0,0,0-1,1.34c-.25.81-.6,1.59-.94,2.46l-5.61-2.84.82-.89c-.52-.56-1-1.13-1.54-1.64a5.29,5.29,0,0,0-1-.52,3.41,3.41,0,0,1-.44-.3,14.07,14.07,0,0,0-1.32-1.08c0-.13.41-.35.11-.57a5.77,5.77,0,0,0,.17-1.08c0-.42-.26-.85-.2-1.25a5.68,5.68,0,0,1,.63-1.74c.08-.14.62-.06.94,0,.72.08.94-.15.83-.95l-.61.07c0-.43,0-.84.06-1.24.1-.77.14-.79,1.22-.89-.1-.56-.1-1.05.62-1.2.13,0,.2-.32.3-.49a4.42,4.42,0,0,1,.44-.76c.19-.23.43-.34.39-.77s.31-.72.5-1.12c-.5-.27-.64-1-1.42-.9-.53.06-.66-1-1.3-.62a3,3,0,0,1-.79-.61c-.29-.43-.57-.1-.85-.07s-.77.18-1.06-.25c-.05-.07-.33-.06-.46,0a3.31,3.31,0,0,0-.5.36c-.66-.22-1.08-1.24-2.11-.67l-.43-.4c-.34.54-.49.56-1.15.14-.78,1.07-1.92,1.21-3.22,1.16a7.28,7.28,0,0,1-.44-1.57,1.35,1.35,0,0,0-.69-1c-1.11-.8-2.25-1.54-3.36-2.34-.46-.33-.74,0-1,.24a.88.88,0,0,1-.84.3,3.56,3.56,0,0,0-1,.22,2.17,2.17,0,0,1-.41-.4.4.4,0,0,0-.59-.21c-.54.23-1.09-.06-1.64-.07-.18,0-.36-.23-.56-.34-.45-.24-.89-.64-1.36-.66a5.69,5.69,0,0,1-2.1-.88c-.41-.19-.77-.47-1.16-.7a1.06,1.06,0,0,0-.37-.18,7,7,0,0,0-1.82-.11,3.19,3.19,0,0,0-2.37,1.34.64.64,0,0,1-.54.2c-.83-.24-1.65-.52-2.47-.79-.21-.07-.56-.09-.61-.22a2.21,2.21,0,0,1-.13-1.05,18.25,18.25,0,0,1,.46-1.79c-.21,0-.45-.07-.68-.09-1-.09-2-.24-3.06-.25a3.18,3.18,0,0,0-1.5.41c-1,.6-2.21,1-2.91,2-.11.17-.38.24-.64.39.06.61-.34.93-.89,1.23s-1.11.44-1.14,1.24c-.84-.22-1.32.24-1.79.82a12.09,12.09,0,0,1-1.35,1.22.42.42,0,0,1-.33.1c-.67-.2-.89.35-1.13.74a1.75,1.75,0,0,1-1.41,1,5,5,0,0,0-1.14.41l-.07-.15-.92,1.22-.51-.36a2.9,2.9,0,0,0,1-2.16.85.85,0,0,0-.25-.59c-.27-.27-.55-.48-.26-.91.07-.1,0-.27,0-.41,0-.4-.19-.76-.06-1.21s-.19-.84-.27-1.28a.54.54,0,0,1,.11-.41,9.3,9.3,0,0,1,.87-.75l-3.36-2c0-.4.36-.93-.19-1.35-.09-.07,0-.35,0-.53a1.12,1.12,0,0,0-.16-.43,2.11,2.11,0,0,1,.72-2.21l-.12-.12-.64-.06v-1.39c.47-.26,1.21-.42,1.4-1.14l-.16-.2-1.91,1c-.13-.37-.28-.74-.38-1.12a2.2,2.2,0,0,1-.15-1c.11-.4.21-.87.73-1.06.35-.13.85-.17.8-.76l-1.42.31c0-.88,0-1.7-.08-2.51-.1-1-.09-1.12.76-1.22,0-.46-.07-.49-.37-.35-.13.06-.27.1-.4.15l-.13-.52-.07.08a5.84,5.84,0,0,1-1-1.28,6.37,6.37,0,0,1-.45-2.11.85.85,0,0,1,.75-1,2,2,0,0,0,.65-.11c.12,0,.2-.22.32-.36l-1.73,0,.36-2.27,1.79,0a1.82,1.82,0,0,0,0-.27,15.14,15.14,0,0,1-2.43-.48c-.53-.19-1.39.17-1.57-.8-.05-.22-.38-.39-.59-.57a.66.66,0,0,1,.15-1.1,1.16,1.16,0,0,0,.86-1.16,2.32,2.32,0,0,1,.74-1.53c.22-.22.52-.39.36-.84-.05-.14.27-.42.34-.52.13-.35.22-.58.31-.81s.14-.27.11-.35c-.24-.52.09-.58.47-.7a2.39,2.39,0,0,0,.64-.48l.31-.28c.47-.39,1-.76,1.4-1.18.11-.09.05-.35.07-.55,1-.37,1.15-.8.84-1.78.2-.16.41-.31.6-.47s.61-.22.67.22.49.86.83,1.23a6.27,6.27,0,0,1,.55.77c.09.13.2.24.31.37a1.28,1.28,0,0,0,.38,1.91,2.12,2.12,0,0,1,.23.35c.07.12.14.33.23.34.76.1,1.31.86,2.19.65a2.87,2.87,0,0,1,1.17.25c.17,0,.38.26.47.2a2.78,2.78,0,0,0,.79-.66c.32-.38.38-1,1.09-1a3.6,3.6,0,0,0,.23-.73c.27-.13.54-.57,1.22-.52.47,0,1-.58,1.53-.94.19.65.86.5,1.39.65a.31.31,0,0,0,.26-.08c.39-.46.89-.87.74-1.6-.09-.44.11-.62.52-.52s.45,0,.57-.34c.25-.64.58-1.24.86-1.86.07-.17,0-.39.09-.57a.93.93,0,0,1,.3-.51c.38-.22.58-.39.22-.83-.12-.15-.05-.52,0-.75.15-.39.17-.66-.34-.72a1,1,0,0,1-.87-.78A1.24,1.24,0,0,0,328,90c-.65-1-.41-1.72.64-2.3a10.38,10.38,0,0,0,1-.89,6.52,6.52,0,0,1,1.06-.67c.08,0,.28.06.39.15.37.29.69.72,1.11.86s.76-.13,1.15-.22c0,0,0-.05,0-.05s.43-.16.45-.12c.33.55,1.2-.34,1.41.56,0,.23.32.43.53.6s.78.08.87.59c0,0,.38,0,.47-.07a3.71,3.71,0,0,0,.42-.7c.37.06.69.12.95-.34a1.32,1.32,0,0,1,.94-.49c.62,0,.75-.6.92-.93a1.71,1.71,0,0,1,1-.84,13.72,13.72,0,0,1,1.8-.51c.23,0,.52.1.73,0a3.64,3.64,0,0,0,1-.64,3.42,3.42,0,0,0,.51-.8.68.68,0,0,0,.13-.27c.09-.87.73-1.12,1.43-1.33a.38.38,0,0,0,.16-.17c.36-.65.71-1.3,1.08-1.94.06-.12.23-.3.27-.28.72.38,1.31-.37,2.05-.18,0,.48.38.59.87.47l.13.52c.71-.24,1-.15,1.4.49s.53,1,.82,1.59a1,1,0,0,1,.34,0c.3.11.81.23.83.4a3.48,3.48,0,0,1-.25,1.2c0,.15-.09.3-.12.45s0,.49-.09.78a9,9,0,0,1,.92.2c.45.14.78.07,1-.4,0-.1.2-.24.25-.22.54.21.49-.3.67-.56l.74.2c-.19-.83.65-1.38.28-2.26-.21-.5.41-.86.93-.59a.79.79,0,0,0,.26.13,3.53,3.53,0,0,0,2.22-1.69,1,1,0,0,0-.16-.5c-.2-.36,0-.55.3-.64.45-.13.92-.2,1.34-.28a1,1,0,0,0,.1-.16c.16-.37-.59-.75,0-1.1.34-.19.72-.31,1.07-.49a2.37,2.37,0,0,0,.61-.37,1.1,1.1,0,0,1,1.82.12c.08.1.06.28.14.38s.27.35.43.38c.49.06,1.12-.12,1.47.12a2.51,2.51,0,0,0,1.81.24,1.29,1.29,0,0,1,1.32.93c.06.24.38.4.53.56a12.34,12.34,0,0,1,.75-1.42c0-.06.46.14.77.24-.27.5-.63.92.08,1.26.35.17.57.19.84-.1a.47.47,0,0,1,.43-.12c.13.06.29.28.26.4a3.27,3.27,0,0,0,.87,2.41c.13.19.21.41.35.59a.8.8,0,0,0,.41.27c.43.07.86.1,1.33.15a7.89,7.89,0,0,0,0,.92,5.23,5.23,0,0,0,.15.66l.24.09-.57.49a5.77,5.77,0,0,1,.64.74,1,1,0,0,1,.18.64c-.08.52,0,.8.62.81.81,0,1,.28,1.33,1.29a4.43,4.43,0,0,0,.48,1.19c.24.36.11.46-.16.65-.66.46-.62.57-.35,1.3a8.5,8.5,0,0,1,.32,1.67c0,.08-.15.21-.25.28a5.22,5.22,0,0,1-.88.52c-.17.08-.5.12-.59,0a.91.91,0,0,0-1.17-.2,1,1,0,0,1-.41,0c-.1.31-.2.59-.29.88a1.81,1.81,0,0,0,.9,1.62c.38.2.67.36.77.87.06.3.52.53.9.9a1.48,1.48,0,0,1,0,.47c-.13.5.18.73.52,1a13.2,13.2,0,0,0,1.25.86,9.47,9.47,0,0,0,1.29.53c.13-.15.23-.36.31-.35a2.59,2.59,0,0,0,2.46-1.2c.07.1.11.14.1.16-1.22,1.94-1.6,4.22-2.54,6.26-.48,1-1.18,2-1.62,3a15.42,15.42,0,0,1-1.62,2.49.8.8,0,0,0-.08.16c-.34,1.18-1.33,1.66-2.46,2.23l.4-1.87a1.94,1.94,0,0,1-2.07-1.37l-.26.14c-.08.35-.15.7-.22,1s-.07.39-.1.58a2.63,2.63,0,0,1-.76-.14c-.17-.09-.25-.33-.39-.53-.11.09-.2.13-.21.19a3.25,3.25,0,0,0,.74,1.26c.22.17.52.41.53.62a1.71,1.71,0,0,1-.4.84c-.08.13-.29.17-.49.28a2.7,2.7,0,0,1,.3.34c.21.31.31.6-.11.85a2.48,2.48,0,0,0-.83.66,1.81,1.81,0,0,0-.2,1c0,.2-.12.54.34.57.15,0,.28.35.43.56a1,1,0,0,0,.05,1.45c.08.09.08.25.12.38l-.52.06a1.53,1.53,0,0,0,.29,2,.69.69,0,0,1,.15.49c0,.64-.15,1.28-.19,1.92s0,1,0,1.55a12.51,12.51,0,0,1-.2,1.93,5.57,5.57,0,0,0,.53,3.06,13.67,13.67,0,0,1,.33,1.57c.25,1.05.51,2.1.75,3.15.14.59.22,1.19.38,1.76s.35.8.5,1.2a1.89,1.89,0,0,1,.22.94c-.3,1.08-.18,2.26-.78,3.27,0,.05-.07.13-.05.17.44.62-.17,1.14-.18,1.72,0,.77-.18,1.53-.22,2.3,0,.56,0,1.13,0,1.74" transform="translate(-280.43 -55.87)" style="fill:#2c537c"/><path d="M327,111c.08.41,0,.48-.19.51l-2.49.15c-.21,0-.23-.07-.27-.27-.15-.83-.52-1.47-1.46-1.47s-1.76.83-1.76,3.16.59,3.19,1.74,3.19a2.19,2.19,0,0,0,2.18-1.67c0-.12.17-.16.4-.12l1.78.36c.1,0,.25.1.2.47a4.62,4.62,0,0,1-4.66,3.31c-3.06,0-5-2.36-5-5.6s2-5.31,5.05-5.31A4.28,4.28,0,0,1,327,111Z" transform="translate(-280.43 -55.87)" style="fill:#fff"/><path d="M331.24,107.84c.17,0,.26.11.26.3V118c0,.3-.15.42-.47.42h-2.38c-.3,0-.39-.12-.39-.36v-9.94c0-.21.12-.32.28-.32Z" transform="translate(-280.43 -55.87)" style="fill:#fff"/><path d="M342.22,111c.08.41,0,.48-.19.51l-2.49.15c-.21,0-.23-.07-.27-.27-.16-.83-.53-1.47-1.47-1.47s-1.75.83-1.75,3.16.59,3.19,1.74,3.19a2.19,2.19,0,0,0,2.18-1.67c0-.12.17-.16.4-.12l1.78.36c.1,0,.25.1.2.47a4.63,4.63,0,0,1-4.66,3.31c-3.06,0-5-2.36-5-5.6s2-5.31,5.05-5.31A4.28,4.28,0,0,1,342.22,111Z" transform="translate(-280.43 -55.87)" style="fill:#fff"/><path d="M343.17,113.17c0-3.32,2-5.48,5.13-5.48s5.1,2.16,5.1,5.48-2,5.43-5.1,5.43S343.17,116.48,343.17,113.17Zm6.84,0c0-2.36-.5-3.32-1.71-3.32s-1.74,1-1.74,3.32.47,3.15,1.74,3.15S350,115.51,350,113.22Z" transform="translate(-280.43 -55.87)" style="fill:#fff"/><path d="M354.58,118.05v-9.89c0-.22.09-.32.3-.32h4c.24,0,.32,0,.39.25l1.49,4.55c.05.16.14.13.18,0l1.32-4.39c.08-.26.19-.41.39-.41h4.11c.17,0,.26.11.26.3V118c0,.3-.13.42-.46.42h-2.4c-.29,0-.37-.12-.37-.36v-6.43c0-.16-.12-.16-.17,0l-2.05,6.51a.37.37,0,0,1-.35.26h-1.49a.34.34,0,0,1-.34-.26l-2.05-6.4c-.07-.23-.17-.17-.17,0v6.33c0,.26-.06.32-.32.32H355A.36.36,0,0,1,354.58,118.05Z" transform="translate(-280.43 -55.87)" style="fill:#fff"/></g><path d="M304.72,147.68h-1.51c-.09,0-.13,0-.13.12v2.49c0,.23-.11.32-.36.32h-1.85c-.22,0-.28-.09-.28-.28V142.7c0-.17.07-.26.2-.26h3.65c1.8,0,3.31.88,3.31,2.65C307.75,146.7,306.52,147.68,304.72,147.68Zm-.44-3.48h-.94c-.19,0-.26.07-.26.23v1.25c0,.16.05.24.19.24h1.08a.82.82,0,0,0,.85-.86A.86.86,0,0,0,304.28,144.2Z" transform="translate(-280.43 -55.87)" style="fill:#0b477a"/><path d="M308,147.72a3.07,3.07,0,1,1,3.05,3A2.9,2.9,0,0,1,308,147.72Zm3.91,0c0-1.16-.25-1.65-.84-1.65s-.85.49-.85,1.65.26,1.63.85,1.63S311.87,148.81,311.87,147.68Z" transform="translate(-280.43 -55.87)" style="fill:#0b477a"/><path d="M314.78,150.33V145c0-.17.07-.26.2-.26h1.72a.2.2,0,0,1,.2.23v.61c0,.11.11.13.19,0a2.2,2.2,0,0,1,1.59-1c.25,0,.41.06.41.22v1.67c0,.14-.09.21-.22.17a4.8,4.8,0,0,0-.95-.12.92.92,0,0,0-.94.75v2.93c0,.23-.11.32-.37.32h-1.55C314.84,150.61,314.78,150.52,314.78,150.33Z" transform="translate(-280.43 -55.87)" style="fill:#0b477a"/><path d="M322.82,146.26a.13.13,0,0,0-.15.14v2.12c0,.38.24.58.77.58h.48a.21.21,0,0,1,.2.22l0,.88c0,.18-.11.28-.31.33a12.4,12.4,0,0,1-1.49.08c-1.06,0-1.83-.52-1.83-1.47v-2.68c0-.13,0-.2-.16-.2h-.53c-.19,0-.26-.1-.26-.24v-1q0-.21.24-.21h.65c.07,0,.12,0,.13-.13l.18-1.63c0-.14.06-.22.19-.22h1.62c.12,0,.21.09.21.25v1.6a.11.11,0,0,0,.12.12h1c.15,0,.25.07.25.21V146c0,.14-.09.24-.28.24Z" transform="translate(-280.43 -55.87)" style="fill:#0b477a"/><path d="M324.41,147.72a3.07,3.07,0,1,1,3.06,3A2.91,2.91,0,0,1,324.41,147.72Zm3.92,0c0-1.16-.25-1.65-.85-1.65s-.85.49-.85,1.65.27,1.63.85,1.63S328.33,148.81,328.33,147.68Z" transform="translate(-280.43 -55.87)" style="fill:#0b477a"/><path d="M311.76,152.64c-.83,0-1.12.29-1.12.56s.15.43.7.57l1.83.47a2.38,2.38,0,0,1,2,2.4c0,1.62-1.35,2.68-3.52,2.68-1.61,0-3.07-.58-3.59-1.45-.09-.16-.09-.24.07-.36l1.13-.79c.2-.13.33-.08.42,0a1.94,1.94,0,0,0,1.78.88c.81,0,1.33-.23,1.33-.64s-.22-.49-.69-.6l-1.67-.4a2.59,2.59,0,0,1-2.16-2.45c0-1.43,1.31-2.6,3.39-2.6a3.88,3.88,0,0,1,3.06,1.19c.06.1.14.22,0,.33l-1.2.87c-.11.07-.18.06-.33-.09A1.66,1.66,0,0,0,311.76,152.64Z" transform="translate(-280.43 -55.87)" style="fill:#0b477a"/><path d="M319.11,157.87a1.66,1.66,0,0,0,1.2-.62c.05-.05.08-.06.23,0l1,.41c.11,0,.14.14,0,.26a3.22,3.22,0,0,1-5.87-1.52,3,3,0,0,1,3.05-3.12,2.89,2.89,0,0,1,3,3.15c0,.18,0,.26-.2.27h-3.42c-.11,0-.17.06-.17.19C318,157.55,318.47,157.87,319.11,157.87Zm.33-2.31c.14,0,.18,0,.18-.16a.82.82,0,0,0-.76-.84.86.86,0,0,0-.85,1Z" transform="translate(-280.43 -55.87)" style="fill:#0b477a"/><path d="M329,153.3v1c0,.26-.12.34-.28.29a2.27,2.27,0,0,0-.49-.08c-.21,0-.26.1-.22.26a1,1,0,0,1,.06.34c0,1-1,1.81-2.83,1.81-.73,0-1,.12-1,.3s.16.21.48.23l1.67.1c1.63.1,2.36.74,2.36,1.64,0,1.12-1.13,2-3.34,2s-3.42-.42-3.42-1.35c0-.49.49-.72,1.07-.89.11,0,.09-.07,0-.12a1.06,1.06,0,0,1-.73-.91c0-.52.61-.88,1.2-1.13.07,0,.15-.07,0-.14a1.62,1.62,0,0,1-1.15-1.49c0-1.06,1-1.82,3-1.82a3,3,0,0,1,1.84.5.23.23,0,0,0,.34,0,1.91,1.91,0,0,1,1.23-.72C328.85,153,329,153.1,329,153.3Zm-4.5,5.82c-.47,0-.76.16-.76.39,0,.41.39.65,1.76.65.86,0,1.32-.24,1.32-.56s-.25-.39-.72-.41Zm1.58-4a.77.77,0,0,0-.86-.82.8.8,0,0,0-.86.82.79.79,0,0,0,.86.77A.76.76,0,0,0,326,155.14Z" transform="translate(-280.43 -55.87)" style="fill:#0b477a"/><path d="M333.11,157.33V153.7c0-.22.11-.32.36-.32H335c.21,0,.29.09.29.29l0,5.3c0,.15-.08.24-.21.24h-1.74a.2.2,0,0,1-.2-.22v-.48c0-.09-.05-.12-.13,0a2.25,2.25,0,0,1-1.83.86,1.64,1.64,0,0,1-1.64-1.84v-3.77c0-.22.1-.33.35-.33h1.6c.19,0,.26.08.26.29v3.57a.5.5,0,0,0,.53.54A1.11,1.11,0,0,0,333.11,157.33Z" transform="translate(-280.43 -55.87)" style="fill:#0b477a"/><path d="M336.21,158.94v-5.31c0-.16.08-.25.21-.25h1.72c.12,0,.19.09.19.22v.62c0,.11.11.13.19,0a2.23,2.23,0,0,1,1.6-1c.25,0,.4.07.4.22v1.67c0,.15-.08.21-.22.18a4.07,4.07,0,0,0-.94-.12.91.91,0,0,0-.95.75v2.92c0,.23-.11.32-.36.32H336.5C336.28,159.21,336.21,159.12,336.21,158.94Z" transform="translate(-280.43 -55.87)" style="fill:#0b477a"/><path d="M340.76,156.33a3.07,3.07,0,0,1,6.14,0,3.07,3.07,0,0,1-6.14,0Zm3.92-.05c0-1.15-.25-1.65-.85-1.65s-.84.5-.84,1.65.26,1.63.84,1.63S344.68,157.42,344.68,156.28Z" transform="translate(-280.43 -55.87)" style="fill:#0b477a"/></g></g></svg>