<?xml version="1.0" standalone="no"?>
<!DOCTYPE svg PUBLIC "-//W3C//DTD SVG 20010904//EN"
 "http://www.w3.org/TR/2001/REC-SVG-20010904/DTD/svg10.dtd">
<svg version="1.0" xmlns="http://www.w3.org/2000/svg"
 width="940.000000pt" height="600.000000pt" viewBox="0 0 940.000000 600.000000"
 preserveAspectRatio="xMidYMid meet">

<g transform="translate(0.000000,600.000000) scale(0.100000,-0.100000)"
fill="#000000" stroke="none">
<path d="M6220 5874 c-277 -34 -399 -62 -617 -141 -66 -25 -77 -34 -102 -93
l-21 -49 31 -113 c17 -62 36 -119 42 -127 27 -32 52 -30 199 20 232 78 467
109 681 90 221 -20 393 -69 584 -165 174 -87 295 -178 437 -326 182 -192 317
-433 396 -708 30 -104 60 -119 155 -77 17 7 59 24 94 37 56 20 66 28 92 73 16
28 29 60 29 73 0 39 -89 291 -144 407 -125 262 -302 491 -536 689 -45 39 -219
153 -300 198 -150 82 -385 160 -590 194 -86 14 -365 26 -430 18z"/>
<path d="M6185 5189 c-117 -8 -238 -36 -375 -85 -95 -34 -98 -37 -124 -84 -32
-59 -32 -62 0 -180 48 -176 49 -177 190 -127 156 54 254 70 413 65 167 -6 265
-30 407 -99 251 -124 451 -364 529 -634 42 -145 48 -148 190 -92 143 56 145
57 164 102 29 65 31 74 22 98 -5 12 -21 60 -36 107 -138 442 -491 781 -930
893 -79 20 -321 52 -345 45 -3 0 -50 -4 -105 -9z"/>
<path d="M6095 4495 c-72 -16 -185 -54 -203 -68 -22 -17 -52 -84 -52 -114 0
-15 14 -75 30 -133 17 -58 30 -106 30 -108 0 -2 16 -10 35 -18 25 -10 41 -11
54 -5 217 117 498 21 601 -204 15 -33 30 -77 34 -98 12 -67 71 -83 158 -43 18
8 59 25 90 36 56 21 76 39 107 102 16 32 12 56 -29 171 -110 303 -386 499
-699 496 -53 0 -123 -7 -156 -14z"/>
<path d="M4826 4224 c-10 -27 3 -30 27 -6 l21 22 -21 0 c-11 0 -24 -7 -27 -16z"/>
<path d="M460 4170 c-11 -11 -20 -27 -20 -35 0 -23 37 -55 70 -62 42 -8 57
-29 31 -43 -17 -9 -24 -7 -38 10 -22 26 -63 27 -63 2 0 -31 33 -52 81 -52 60
0 89 21 89 65 0 36 -21 54 -82 69 -29 7 -36 20 -17 31 5 4 18 0 28 -9 19 -18
71 -22 71 -6 0 26 -41 50 -85 50 -32 0 -51 -6 -65 -20z"/>
<path d="M630 4090 l0 -100 80 0 c73 0 80 2 80 20 0 17 -7 20 -50 20 -47 0
-50 2 -50 25 0 23 4 25 45 25 33 0 45 4 45 15 0 11 -12 15 -45 15 -38 0 -45 3
-45 20 0 17 7 20 50 20 43 0 50 3 50 20 0 18 -7 20 -80 20 l-80 0 0 -100z"/>
<path d="M844 4178 c-42 -20 -57 -94 -29 -147 17 -34 33 -41 90 -41 35 0 48 5
64 26 26 34 26 40 -1 47 -15 4 -28 0 -41 -13 -33 -36 -67 -18 -67 36 0 31 21
64 40 64 5 0 16 -7 24 -16 12 -12 23 -13 43 -7 l27 9 -26 27 c-29 29 -83 36
-124 15z"/>
<path d="M1000 4090 l0 -100 30 0 c28 0 30 2 30 40 0 22 4 40 10 40 5 0 21
-18 35 -40 20 -32 31 -40 55 -40 36 0 37 7 6 52 -23 35 -23 36 -5 52 11 9 19
27 19 40 0 39 -35 56 -112 56 l-68 0 0 -100z m115 40 c0 -9 -11 -16 -27 -18
-23 -3 -28 1 -28 18 0 17 5 21 28 18 16 -2 27 -9 27 -18z"/>
<path d="M1200 4090 l0 -100 80 0 c73 0 80 2 80 20 0 17 -7 20 -50 20 -47 0
-50 2 -50 25 0 23 4 25 45 25 33 0 45 4 45 15 0 11 -12 15 -45 15 -38 0 -45 3
-45 20 0 22 27 25 114 14 l46 -7 0 -73 0 -74 30 0 30 0 0 75 0 75 30 0 c25 0
30 4 30 25 l0 25 -170 0 -170 0 0 -100z"/>
<path d="M1583 4173 c-3 -10 -19 -52 -35 -93 -15 -41 -28 -78 -28 -82 0 -15
58 -8 64 7 3 9 18 15 40 15 21 0 36 -6 40 -15 4 -11 21 -15 66 -15 l60 0 0 40
c0 22 4 40 10 40 5 0 19 -18 30 -40 l20 -40 65 0 65 0 0 100 0 100 -30 0 -30
0 0 -97 0 -98 -24 40 c-19 34 -21 42 -9 56 20 24 17 76 -6 89 -11 5 -49 10
-85 10 l-65 0 -3 -92 -3 -93 -34 93 c-33 91 -34 92 -68 92 -23 0 -36 -5 -40
-17z m257 -43 c0 -15 -7 -20 -25 -20 -18 0 -25 5 -25 20 0 15 7 20 25 20 18 0
25 -5 25 -20z m-203 -66 c-3 -4 -13 -4 -21 -1 -13 5 -13 12 -4 39 l12 33 9
-33 c6 -18 7 -35 4 -38z"/>
<path d="M2061 4171 c-6 -11 -24 -56 -41 -100 l-29 -81 30 0 c17 0 32 6 35 15
4 9 19 15 40 15 22 0 37 -6 40 -15 7 -18 64 -21 63 -2 0 6 -15 50 -33 97 -31
79 -35 85 -64 88 -22 2 -34 -2 -41 -17z m53 -88 c6 -19 3 -23 -13 -23 -22 0
-25 10 -14 49 6 25 14 18 27 -26z"/>
<path d="M2280 4090 l0 -100 56 0 c30 0 65 5 77 11 16 9 22 9 25 0 5 -16 59
-14 66 4 3 9 18 15 40 15 21 0 36 -6 40 -15 3 -9 18 -15 37 -15 26 0 30 3 24
18 -4 9 -21 54 -37 100 l-31 83 -35 -3 c-32 -3 -36 -7 -57 -63 l-22 -59 -6 41
c-10 60 -43 83 -118 83 l-59 0 0 -100z m108 38 c28 -28 4 -98 -34 -98 -10 0
-14 14 -14 55 0 46 3 55 18 55 10 0 23 -5 30 -12z m169 -64 c-3 -4 -13 -4 -21
-1 -13 5 -13 12 -4 39 l12 33 9 -33 c6 -18 7 -35 4 -38z"/>
<path d="M2740 4170 c-11 -11 -20 -27 -20 -35 0 -23 37 -55 70 -62 42 -8 57
-29 31 -43 -17 -9 -24 -7 -38 10 -22 26 -63 27 -63 2 0 -31 33 -52 81 -52 60
0 89 21 89 65 0 36 -21 54 -82 69 -29 7 -36 20 -17 31 5 4 18 0 28 -9 19 -18
71 -22 71 -6 0 26 -41 50 -85 50 -32 0 -51 -6 -65 -20z"/>
<path d="M2900 4090 l0 -100 85 0 c78 0 85 2 85 19 0 17 -8 20 -52 23 -45 3
-53 6 -53 23 0 17 8 20 48 23 32 2 47 8 47 17 0 9 -15 15 -47 17 -35 2 -48 7
-48 18 0 11 13 16 48 18 39 3 47 6 47 23 0 17 -7 19 -80 19 l-80 0 0 -100z"/>
<path d="M3113 4175 c-50 -35 -50 -135 0 -170 26 -18 96 -20 132 -3 21 9 25
18 25 55 l0 43 -45 0 c-38 0 -45 -3 -45 -20 0 -14 7 -20 21 -20 30 0 18 -24
-14 -28 -35 -4 -64 38 -51 75 13 37 39 51 64 35 24 -14 56 -16 65 -2 3 5 -3
18 -15 30 -25 25 -105 28 -137 5z"/>
<path d="M3290 4116 c0 -100 19 -126 95 -126 76 0 95 26 95 126 l0 74 -30 0
-29 0 -3 -71 c-2 -54 -7 -75 -20 -82 -32 -20 -48 8 -48 84 l0 69 -30 0 -30 0
0 -74z"/>
<path d="M3500 4090 l0 -100 30 0 c28 0 30 2 30 40 0 22 4 40 10 40 5 0 21
-18 35 -40 24 -39 27 -40 79 -40 39 0 55 4 60 15 3 9 18 15 40 15 21 0 36 -6
40 -15 4 -11 21 -15 65 -15 l60 0 3 52 3 53 34 -53 c27 -43 38 -52 62 -52 l29
0 0 100 0 100 -29 0 c-29 0 -30 -2 -33 -52 l-3 -53 -34 53 c-27 43 -38 52 -62
52 l-28 0 -3 -92 -3 -93 -34 93 -34 93 -35 -3 c-34 -3 -36 -5 -65 -86 l-30
-83 -23 28 c-22 28 -22 28 -3 46 10 10 19 29 19 42 0 38 -35 55 -112 55 l-68
0 0 -100z m115 40 c0 -9 -11 -16 -27 -18 -23 -3 -28 1 -28 18 0 17 5 21 28 18
16 -2 27 -9 27 -18z m182 -66 c-3 -4 -13 -4 -21 -1 -13 5 -13 12 -4 39 l12 33
9 -33 c6 -18 7 -35 4 -38z"/>
<path d="M4133 4175 c-54 -38 -49 -139 8 -174 16 -10 26 -21 22 -24 -3 -4 1
-7 10 -7 10 0 17 -4 17 -10 0 -5 -9 -10 -20 -10 -11 0 -20 -4 -20 -10 0 -16
56 -12 70 5 10 12 10 18 0 30 -10 12 -10 15 4 15 20 0 56 35 56 54 0 24 -41
27 -59 4 -40 -48 -92 24 -57 77 19 29 24 30 54 9 22 -15 62 -11 62 6 0 5 -10
18 -22 30 -26 24 -93 27 -125 5z"/>
<path d="M4343 4173 c-3 -10 -19 -52 -35 -93 -15 -41 -28 -78 -28 -82 0 -15
58 -8 64 7 3 9 18 15 40 15 21 0 36 -6 40 -15 3 -9 18 -15 37 -15 26 0 30 3
24 18 -4 9 -21 54 -37 100 -30 81 -31 82 -65 82 -23 0 -36 -6 -40 -17z m54
-109 c-3 -4 -13 -4 -21 -1 -13 5 -13 12 -4 39 l12 33 9 -33 c6 -18 7 -35 4
-38z"/>
<path d="M4560 4090 l0 -100 30 0 c27 0 30 3 30 34 0 31 3 34 38 41 69 13 94
63 52 105 -16 16 -33 20 -85 20 l-65 0 0 -100z m108 39 c3 -17 -23 -33 -39
-23 -5 3 -9 14 -9 25 0 15 6 20 22 17 13 -2 24 -10 26 -19z"/>
<path d="M4740 4116 c0 -100 19 -126 95 -126 76 0 95 26 95 126 l0 74 -30 0
-29 0 -3 -71 c-2 -54 -7 -75 -20 -82 -32 -20 -48 8 -48 84 l0 69 -30 0 -30 0
0 -74z"/>
<path d="M4950 4089 l0 -101 80 4 c58 2 84 7 90 18 15 24 12 68 -6 78 -11 6
-13 11 -5 16 19 12 13 64 -8 76 -11 5 -49 10 -85 10 l-66 0 0 -101z m110 41
c0 -15 -7 -20 -25 -20 -18 0 -25 5 -25 20 0 15 7 20 25 20 18 0 25 -5 25 -20z
m8 -77 c-2 -11 -14 -19 -31 -21 -22 -3 -27 1 -27 17 0 17 6 21 31 21 24 0 30
-4 27 -17z"/>
<path d="M5150 4090 l0 -100 75 0 c73 0 75 1 75 25 0 23 -4 25 -45 25 l-45 0
0 75 0 75 -30 0 -30 0 0 -100z"/>
<path d="M5310 4090 l0 -100 30 0 30 0 0 100 0 100 -30 0 -30 0 0 -100z"/>
<path d="M5434 4178 c-42 -20 -57 -94 -29 -147 17 -34 33 -41 90 -41 35 0 48
5 64 26 26 34 26 40 -1 47 -15 4 -28 0 -41 -13 -33 -36 -67 -18 -67 36 0 31
21 64 40 64 5 0 16 -7 24 -16 12 -12 23 -13 43 -7 l27 9 -26 27 c-29 29 -83
36 -124 15z"/>
<path d="M5641 4171 c-6 -11 -24 -56 -41 -100 l-29 -81 30 0 c17 0 32 6 35 15
4 9 19 15 40 15 22 0 37 -6 40 -15 7 -18 64 -21 63 -2 0 6 -15 50 -33 97 -31
79 -35 85 -64 88 -22 2 -34 -2 -41 -17z m53 -88 c6 -19 3 -23 -13 -23 -22 0
-25 10 -14 49 6 25 14 18 27 -26z"/>
<path d="M7430 3857 c0 -5 -307 -1057 -421 -1441 -22 -75 -26 -102 -18 -113
15 -17 64 -17 82 1 16 17 13 3 112 410 42 170 79 315 83 321 4 8 95 -110 232
-302 124 -173 228 -316 232 -319 4 -3 109 147 232 332 131 197 227 332 230
323 3 -8 48 -174 101 -369 53 -195 98 -363 101 -372 5 -17 30 -18 341 -18 304
0 335 2 329 16 -11 28 -259 862 -357 1201 -52 178 -97 323 -100 323 -4 0 -134
-193 -290 -429 l-283 -429 -26 37 c-14 20 -147 212 -295 426 -274 398 -285
414 -285 402z"/>
<path d="M934 3835 c-152 -33 -324 -138 -425 -259 -262 -318 -247 -773 34
-1065 152 -156 355 -242 574 -242 249 1 474 110 628 306 89 113 112 175 70
191 -22 9 -37 -7 -100 -101 -139 -209 -347 -327 -582 -329 -50 -1 -94 1 -96 4
-6 6 -9 497 -8 1067 l1 372 36 7 c52 10 203 -13 287 -42 112 -40 206 -104 297
-202 68 -73 83 -85 98 -76 30 19 25 49 -18 103 -91 115 -261 222 -414 261 -94
24 -285 26 -382 5z"/>
<path d="M3904 3835 c-152 -33 -324 -138 -425 -259 -262 -318 -247 -773 34
-1065 152 -156 355 -242 574 -242 249 1 474 110 628 306 89 113 112 175 70
191 -22 9 -37 -7 -100 -101 -139 -209 -347 -327 -582 -329 -50 -1 -94 1 -96 4
-6 6 -9 497 -8 1067 l1 372 36 7 c52 10 203 -13 287 -42 112 -40 206 -104 297
-202 68 -73 83 -85 98 -76 30 19 25 49 -18 103 -91 115 -261 222 -414 261 -94
24 -285 26 -382 5z"/>
<path d="M5690 3829 c-144 -37 -261 -105 -370 -213 -154 -154 -242 -386 -227
-600 18 -259 147 -481 357 -615 147 -95 270 -132 435 -132 127 0 224 21 333
72 212 98 349 248 425 467 27 75 31 104 35 217 3 108 0 145 -17 219 -71 299
-296 520 -601 591 -94 22 -276 19 -370 -6z m370 -64 c36 -9 107 -36 159 -61
77 -38 108 -60 175 -127 143 -144 205 -285 214 -488 5 -136 -16 -239 -72 -354
-89 -180 -274 -330 -471 -380 -70 -18 -235 -30 -251 -18 -12 9 -21 627 -16
1155 2 263 3 287 20 292 28 8 172 -3 242 -19z"/>
<path d="M2200 3060 l0 -750 335 0 334 0 0 750 0 750 -335 0 -334 0 0 -750z"/>
<path d="M5161 2352 c-72 -32 -86 -42 -103 -76 -20 -39 -20 -41 -3 -95 80
-259 308 -425 560 -408 89 7 211 40 237 65 9 10 24 33 31 52 14 32 13 42 -12
124 -32 106 -49 120 -109 91 -46 -22 -172 -31 -229 -16 -98 27 -188 120 -219
227 -14 48 -36 75 -61 73 -4 0 -46 -17 -92 -37z"/>
<path d="M6284 2196 c-56 -56 -46 -95 55 -209 52 -59 61 -81 38 -90 -18 -7
-84 17 -108 39 -16 15 -19 15 -19 1 0 -21 78 -57 123 -57 79 0 137 42 137 100
0 40 -14 63 -93 148 -70 76 -50 117 36 73 40 -21 51 -12 15 13 -15 11 -45 16
-86 16 -59 0 -66 -2 -98 -34z"/>
<path d="M7970 2208 c-90 -61 -111 -173 -49 -260 24 -33 95 -68 140 -68 46 1
111 31 137 65 36 46 25 51 -15 8 -37 -40 -111 -72 -133 -58 -6 4 -10 73 -10
166 l0 159 25 0 c35 0 86 -23 109 -49 22 -24 38 -28 30 -6 -4 9 -25 27 -49 40
-56 34 -138 35 -185 3z"/>
<path d="M8330 2208 c-68 -47 -98 -120 -79 -193 16 -56 43 -90 92 -114 162
-78 322 101 227 254 -45 72 -171 100 -240 53z m179 -16 c14 -10 37 -34 49 -53
20 -28 23 -44 20 -92 -6 -86 -59 -143 -138 -149 l-35 -3 -3 164 -3 164 42 -6
c23 -3 54 -14 68 -25z"/>
<path d="M8666 2068 c-50 -175 -51 -178 -37 -178 5 0 17 33 26 73 10 39 20 75
24 79 3 4 26 -22 51 -57 25 -35 48 -64 52 -65 5 0 29 32 54 70 26 39 48 69 49
68 2 -2 13 -40 25 -85 l22 -83 75 0 c56 0 74 3 70 13 -2 6 -23 77 -47 157 -23
80 -45 151 -49 158 -4 8 -28 -21 -65 -78 -32 -49 -61 -90 -65 -90 -4 0 -35 41
-69 90 -35 50 -64 90 -66 90 -1 0 -24 -73 -50 -162z"/>
<path d="M6568 2213 l52 -4 0 -160 0 -159 75 0 75 0 0 159 0 160 48 4 c26 2
-32 3 -128 3 -96 0 -151 -1 -122 -3z"/>
<path d="M6890 2055 l0 -165 150 0 c103 0 150 3 150 11 0 8 -24 10 -75 7 l-75
-3 0 107 0 107 73 4 72 3 -72 2 -73 2 0 40 0 39 68 4 c37 2 3 4 -75 5 l-143 2
0 -165z"/>
<path d="M7230 2055 l0 -165 150 0 c106 0 150 3 150 11 0 9 -22 10 -75 6 l-75
-7 0 160 0 160 -75 0 -75 0 0 -165z"/>
<path d="M7570 2055 l0 -165 150 0 c103 0 150 3 150 11 0 8 -24 10 -75 7 l-75
-3 0 107 0 107 73 4 72 3 -72 2 -73 2 0 40 0 39 68 4 c37 2 3 4 -75 5 l-143 2
0 -165z"/>
<path d="M4700 2166 c-115 -50 -129 -86 -85 -215 94 -278 291 -495 550 -608
142 -62 317 -89 472 -73 117 12 160 22 268 61 70 25 91 38 106 63 10 17 19 39
19 49 0 37 -44 172 -62 192 -18 19 -19 19 -65 1 -131 -51 -175 -59 -313 -60
-115 -1 -146 3 -210 22 -251 79 -445 274 -515 518 -10 32 -22 65 -27 72 -16
19 -57 13 -138 -22z"/>
<path d="M4255 1985 c-81 -35 -111 -60 -121 -99 -8 -33 60 -226 123 -348 198
-388 528 -648 946 -745 98 -23 134 -27 292 -27 210 -1 303 14 493 76 104 35
127 46 148 74 31 40 32 68 5 157 -33 111 -40 114 -169 67 -132 -48 -269 -72
-417 -74 -325 -2 -602 111 -830 337 -142 142 -253 326 -311 514 -23 76 -42
103 -71 103 -4 0 -44 -16 -88 -35z"/>
<path d="M4826 519 c-97 -23 -140 -90 -135 -208 4 -67 8 -83 33 -115 37 -49
85 -69 168 -69 54 0 75 5 111 26 60 35 81 81 82 172 0 85 -28 142 -84 173 -44
24 -122 34 -175 21z m118 -109 c22 -22 32 -103 17 -142 -23 -61 -104 -74 -138
-22 -19 30 -21 120 -4 153 24 43 86 49 125 11z"/>
<path d="M6076 519 c-97 -23 -140 -90 -135 -208 4 -67 8 -83 33 -115 37 -49
85 -69 168 -69 54 0 75 5 111 26 60 35 81 81 82 172 0 85 -28 142 -84 173 -44
24 -122 34 -175 21z m118 -109 c22 -22 32 -103 17 -142 -23 -61 -104 -74 -138
-22 -19 30 -21 120 -4 153 24 43 86 49 125 11z"/>
<path d="M6700 523 c-56 -9 -68 -14 -92 -38 -32 -32 -40 -71 -23 -110 16 -39
47 -59 121 -80 32 -10 68 -25 78 -36 19 -18 19 -19 1 -39 -10 -11 -30 -20 -45
-20 -27 0 -60 27 -60 48 0 8 -21 12 -61 12 l-61 0 7 -27 c18 -75 67 -105 169
-106 79 0 121 16 155 59 28 35 28 102 1 137 -20 25 -113 67 -148 67 -10 0 -28
7 -41 17 l-24 16 21 18 c25 20 58 15 75 -12 9 -15 24 -19 69 -19 34 0 58 4 58
10 0 24 -32 71 -58 84 -31 15 -104 26 -142 19z"/>
<path d="M7502 520 c-95 -20 -142 -86 -142 -197 0 -75 24 -131 70 -164 60 -44
200 -43 280 2 l40 23 0 83 0 83 -90 0 -90 0 0 -40 0 -40 40 0 c32 0 40 -4 40
-18 0 -39 -100 -57 -139 -24 -46 36 -46 158 0 195 29 23 78 22 105 -4 18 -17
29 -19 73 -13 38 5 51 11 51 23 0 24 -27 59 -58 75 -36 19 -127 27 -180 16z"/>
<path d="M8816 519 c-97 -23 -140 -90 -135 -208 4 -67 8 -83 33 -115 37 -49
85 -69 168 -69 54 0 75 5 111 26 60 35 81 81 82 172 0 85 -28 142 -84 173 -44
24 -122 34 -175 21z m118 -109 c22 -22 32 -103 17 -142 -23 -61 -104 -74 -138
-22 -19 30 -21 120 -4 153 24 43 86 49 125 11z"/>
<path d="M4300 325 l0 -195 60 0 60 0 0 75 0 75 70 0 c62 0 73 3 101 28 57 51
50 153 -13 192 -28 17 -51 20 -155 20 l-123 0 0 -195z m198 103 c21 -21 14
-58 -14 -68 -53 -20 -64 -14 -64 35 0 44 1 45 33 45 18 0 38 -5 45 -12z"/>
<path d="M5150 325 l0 -195 60 0 60 0 0 80 c0 59 3 80 13 80 23 0 43 -23 81
-92 l37 -68 64 0 c36 0 65 2 65 5 0 18 -57 115 -83 143 -23 23 -27 32 -15 32
29 0 68 58 68 101 0 91 -37 109 -220 109 l-130 0 0 -195z m228 86 c5 -32 -21
-51 -70 -51 -38 0 -38 0 -38 41 l0 40 53 -3 c47 -3 52 -6 55 -27z"/>
<path d="M5540 475 l0 -44 63 -3 62 -3 3 -147 3 -148 54 0 54 0 3 148 3 147
63 3 62 3 0 44 0 45 -185 0 -185 0 0 -45z"/>
<path d="M6980 325 l0 -195 165 0 165 0 0 45 0 45 -105 0 -105 0 0 40 0 40 95
0 95 0 0 35 0 35 -95 0 -95 0 0 35 0 35 100 0 100 0 0 40 0 40 -160 0 -160 0
0 -195z"/>
<path d="M7822 371 c3 -166 10 -186 77 -225 49 -28 176 -27 223 2 58 36 68 70
68 231 l0 141 -54 0 -54 0 -4 -135 c-3 -144 -8 -158 -58 -170 -18 -4 -34 0
-53 15 -27 21 -27 22 -27 156 l0 134 -61 0 -61 0 4 -149z"/>
<path d="M8280 325 l0 -195 60 0 60 0 0 80 c0 59 3 80 13 80 23 0 43 -23 81
-92 l37 -68 64 0 c36 0 65 2 65 5 0 18 -57 115 -83 143 -23 23 -27 32 -15 32
29 0 68 58 68 101 0 91 -37 109 -220 109 l-130 0 0 -195z m228 86 c5 -32 -21
-51 -70 -51 -38 0 -38 0 -38 41 l0 40 53 -3 c47 -3 52 -6 55 -27z"/>
</g>
</svg>
